<svg width="45" height="45" viewBox="0 0 45 45" fill="none" xmlns="http://www.w3.org/2000/svg">
<path d="M34.7034 2.96404C33.9592 3.01959 33.3418 3.02363 32.7027 2.88939C32.207 2.88244 31.7146 2.8451 31.168 2.80875C30.1966 2.74416 29.2389 2.67373 28.2695 2.58256C26.7505 2.4397 25.1579 2.34253 23.6587 2.10992C22.2254 1.88754 20.6148 1.67403 19.1495 1.65754C18.3868 1.64896 17.5926 1.48212 16.8325 1.54951C15.8584 1.63588 14.8853 1.7027 13.9295 1.8736C12.2069 2.1816 10.4139 2.52162 8.87561 3.19023C7.79679 3.65912 6.70467 4.10912 5.76483 4.72292C4.66335 5.44229 3.76467 6.27318 3.16175 7.26165C2.45075 8.42731 1.77104 9.56 1.35251 10.8064C0.971387 11.9414 0.532749 13.1179 0.337123 14.2769L0.325813 14.3439C0.13303 15.4854 -0.0767499 16.7276 0.0278916 17.8757C0.0298536 17.8972 0.107682 18.4834 0.152507 18.4834C0.46603 18.4834 0.969511 18.0085 1.16789 17.8825C4.21258 15.9475 6.93765 13.7375 10.851 12.7172C13.9101 11.9197 17.3566 12.0555 20.4418 12.6902C21.7004 12.9491 23.0086 13.0929 24.2495 13.3857C24.8023 13.5161 25.3824 13.566 25.948 13.6625C26.3876 13.7375 26.8562 13.8597 27.3095 13.8718C28.3765 13.9002 29.406 14.0541 30.4757 14.0541C31.4354 14.0541 32.5357 13.9998 33.4387 13.7503C34.4362 13.4746 35.4241 13.1695 36.3418 12.7746C37.4459 12.2996 38.6252 11.8027 39.5495 11.1508C40.2323 10.6692 40.9754 10.1275 41.4695 9.53368C41.795 9.14259 42.0862 8.76265 42.3511 8.34534C42.6182 7.92445 43.0124 7.53824 43.2234 7.09961C43.5707 6.3776 43.9622 5.62328 44.2157 4.88159C44.4829 4.0998 44.864 3.23041 44.8849 2.42051C44.9014 1.78012 44.968 1.14729 44.968 0.502961C44.968 0.345508 45.1082 -0.15444 44.8018 0.0472048C44.5511 0.212254 44.2789 0.338581 44.0357 0.516465C43.5924 0.840738 42.8904 1.06783 42.3003 1.20516C41.2946 1.43922 40.3335 1.86117 39.3464 2.14368C38.3773 2.42106 37.3628 2.59501 36.3603 2.78512C35.8158 2.88837 35.2618 2.92236 34.7034 2.96404Z" fill="#F2C941"/>
<path d="M34.7034 16.2223C33.9592 16.2779 33.3418 16.2819 32.7027 16.1477C32.207 16.1407 31.7146 16.1034 31.168 16.067C30.1966 16.0025 29.2389 15.932 28.2695 15.8409C26.7505 15.698 25.1579 15.6008 23.6587 15.3682C22.2254 15.1458 20.6148 14.9323 19.1495 14.9158C18.3868 14.9073 17.5926 14.7404 16.8325 14.8078C15.8584 14.8942 14.8853 14.961 13.9295 15.1319C12.2069 15.4399 10.4139 15.7799 8.87561 16.4485C7.79679 16.9174 6.70467 17.3674 5.76483 17.9812C4.66335 18.7006 3.76467 19.5315 3.16175 20.52C2.45075 21.6856 1.77104 22.8183 1.35251 24.0647C0.971387 25.1997 0.532749 26.3762 0.337123 27.5352L0.325813 27.6022C0.13303 28.7437 -0.0767499 29.9859 0.0278916 31.134C0.0298536 31.1555 0.107682 31.7417 0.152507 31.7417C0.46603 31.7417 0.969511 31.2668 1.16789 31.1408C4.21258 29.2058 6.93765 26.9958 10.851 25.9755C13.9101 25.178 17.3566 25.3138 20.4418 25.9485C21.7004 26.2074 23.0086 26.3512 24.2495 26.644C24.8023 26.7744 25.3824 26.8243 25.948 26.9208C26.3876 26.9958 26.8562 27.118 27.3095 27.1301C28.3765 27.1585 29.406 27.3124 30.4757 27.3124C31.4354 27.3124 32.5357 27.2581 33.4387 27.0086C34.4362 26.7329 35.4241 26.4278 36.3418 26.0329C37.4459 25.5579 38.6252 25.061 39.5495 24.4091C40.2323 23.9275 40.9754 23.3858 41.4695 22.792C41.795 22.4009 42.0862 22.0209 42.3511 21.6036C42.6182 21.1827 43.0124 20.7965 43.2234 20.3579C43.5707 19.6359 43.9622 18.8816 44.2157 18.1399C44.4829 17.3581 44.864 16.4887 44.8849 15.6788C44.9014 15.0384 44.968 14.4056 44.968 13.7613C44.968 13.6038 45.1082 13.1039 44.8018 13.3055C44.5511 13.4706 44.2789 13.5969 44.0357 13.7748C43.5924 14.099 42.8904 14.3261 42.3003 14.4635C41.2946 14.6975 40.3335 15.1195 39.3464 15.402C38.3773 15.6794 37.3628 15.8533 36.3603 16.0434C35.8158 16.1467 35.2618 16.1807 34.7034 16.2223Z" fill="#F2C941"/>
<path d="M34.7034 29.4806C33.9592 29.5362 33.3418 29.5402 32.7027 29.406C32.207 29.399 31.7146 29.3617 31.168 29.3254C30.1966 29.2608 29.2389 29.1903 28.2695 29.0992C26.7505 28.9563 25.1579 28.8591 23.6587 28.6265C22.2254 28.4041 20.6148 28.1906 19.1495 28.1741C18.3868 28.1656 17.5926 27.9987 16.8325 28.0661C15.8584 28.1525 14.8853 28.2193 13.9295 28.3902C12.2069 28.6982 10.4139 29.0382 8.87561 29.7068C7.79679 30.1757 6.70467 30.6257 5.76483 31.2395C4.66335 31.9589 3.76467 32.7898 3.16175 33.7783C2.45075 34.9439 1.77104 36.0766 1.35251 37.323C0.971387 38.458 0.532749 39.6345 0.337123 40.7935L0.325813 40.8605C0.13303 42.002 -0.0767499 43.2442 0.0278916 44.3923C0.0298536 44.4138 0.107682 45 0.152507 45C0.46603 45 0.969511 44.5251 1.16789 44.3991C4.21258 42.4641 6.93765 40.2541 10.851 39.2338C13.9101 38.4363 17.3566 38.5721 20.4418 39.2068C21.7004 39.4657 23.0086 39.6095 24.2495 39.9023C24.8023 40.0327 25.3824 40.0826 25.948 40.1791C26.3876 40.2541 26.8562 40.3763 27.3095 40.3884C28.3765 40.4168 29.406 40.5707 30.4757 40.5707C31.4354 40.5707 32.5357 40.5164 33.4387 40.2669C34.4362 39.9912 35.4241 39.6861 36.3418 39.2912C37.4459 38.8162 38.6252 38.3193 39.5495 37.6674C40.2323 37.1858 40.9754 36.6441 41.4695 36.0503C41.795 35.6592 42.0862 35.2792 42.3511 34.8619C42.6182 34.441 43.0124 34.0548 43.2234 33.6162C43.5707 32.8942 43.9622 32.1399 44.2157 31.3982C44.4829 30.6164 44.864 29.747 44.8849 28.9371C44.9014 28.2967 44.968 27.6639 44.968 27.0196C44.968 26.8621 45.1082 26.3622 44.8018 26.5638C44.5511 26.7289 44.2789 26.8552 44.0357 27.0331C43.5924 27.3573 42.8904 27.5844 42.3003 27.7218C41.2946 27.9558 40.3335 28.3778 39.3464 28.6603C38.3773 28.9377 37.3628 29.1116 36.3603 29.3017C35.8158 29.405 35.2618 29.439 34.7034 29.4806Z" fill="#F2C941"/>
</svg>
